<?xml version="1.0" encoding="UTF-8" standalone="no"?><!DOCTYPE svg PUBLIC "-//W3C//DTD SVG 1.1//EN" "http://www.w3.org/Graphics/SVG/1.1/DTD/svg11.dtd"><svg width="100%" height="100%" viewBox="0 0 502 502" version="1.1" xmlns="http://www.w3.org/2000/svg" xmlns:xlink="http://www.w3.org/1999/xlink" xml:space="preserve" style="fill-rule:evenodd;clip-rule:evenodd;stroke-linejoin:round;stroke-miterlimit:1.41421;"><g id="Icon"><path d="M386.612,0l-365.714,0c-11.494,0 -20.898,9.404 -20.898,20.898l0,459.755c0,11.494 9.404,20.898 20.898,20.898l459.755,0c11.494,0 20.898,-9.404 20.898,-20.898l0,-365.714l-114.939,-114.939Z" style="fill:#f2f2f2;fill-rule:nonzero;"/><path d="M386.612,94.041c0,11.494 9.404,20.898 20.898,20.898l94.041,0l-114.939,-114.939l0,94.041Z" style="fill:#cdd6e0;fill-rule:nonzero;"/><g><path d="M94.24,88.83c-1.244,-6.221 0.041,-11.731 2.869,-12.296c2.828,-0.566 6.134,4.026 7.378,10.246c1.244,6.221 -0.042,11.73 -2.87,12.296c-2.828,0.565 -6.133,-4.026 -7.377,-10.246Z" style="fill:#f8b64c;"/><path d="M173.049,99.029c-2.828,-0.565 -4.113,-6.075 -2.869,-12.295c1.244,-6.221 4.549,-10.812 7.377,-10.247c2.828,0.566 4.114,6.075 2.87,12.296c-1.244,6.221 -4.55,10.812 -7.378,10.246Z" style="fill:#f8b64c;"/></g><path d="M233.012,220.473l-191.216,0c0,0 3.135,-39.706 15.673,-57.469l1.045,-1.045c7.314,-3.135 38.661,-14.629 53.29,-26.122l1.045,-7.314c0,0 6.269,12.539 18.808,13.584l8.36,0c13.584,-2.09 18.808,-13.584 18.808,-13.584l1.045,7.314c14.629,11.494 45.976,22.988 53.29,26.122c1.045,0 1.045,1.045 1.045,1.045c15.673,17.763 18.807,57.469 18.807,57.469Z" style="fill:#cdd6e0;fill-rule:nonzero;"/><path d="M160.914,129.567c0,0 -6.269,12.539 -18.808,13.584l-8.36,0c-13.584,-2.09 -18.808,-13.584 -18.808,-13.584c0,0 0,-2.09 0,-5.224c0,-1.045 0,-3.135 0,-4.18c11.494,13.584 22.988,15.673 22.988,15.673c0,0 12.539,-2.09 22.988,-15.673l0,9.404Z" style="fill:#f8b64c;fill-rule:nonzero;"/><path d="M176.588,76.278c0,2.09 -1.045,4.18 -1.045,4.18c-7.314,51.2 -38.661,56.424 -38.661,56.424c0,0 -32.392,-5.224 -38.661,-56.424c0,0 0,-1.045 -1.045,-4.18c-2.09,-12.539 -3.135,-52.245 39.706,-51.2c42.84,0 41.796,38.661 39.706,51.2Z" style="fill:#ffd15c;fill-rule:nonzero;"/><g><path d="M168.229,141.061l-14.629,28.212l-8.359,-13.583l2.09,-2.09l7.314,10.449l11.494,-24.033l2.09,1.045Z" style="fill:#acb3ba;fill-rule:nonzero;"/><path d="M105.535,141.061l14.628,28.212l9.404,-13.583l-2.089,-2.09l-7.315,10.449l-12.539,-24.033l-2.089,1.045Z" style="fill:#acb3ba;fill-rule:nonzero;"/></g><path d="M176.588,76.278l-1.045,2.09c0,0 -2.09,-20.898 -11.494,-34.482c0,0 -6.269,8.359 -27.167,8.359c-20.898,0 -27.167,-8.359 -27.167,-8.359c-8.359,13.584 -10.449,34.482 -10.449,34.482l-2.09,-2.09c-2.09,-12.539 -3.135,-52.245 39.706,-51.2c42.84,0 41.796,38.661 39.706,51.2Z" style="fill:#334a5e;fill-rule:nonzero;"/><path d="M141.061,159.869l5.224,50.155l-9.404,9.404l-9.404,-9.404l5.224,-50.155l-6.269,-7.314l5.224,-9.404l8.36,0l5.224,9.404l-4.179,7.314Z" style="fill:#ff8700;fill-rule:nonzero;"/><rect x="280.033" y="195.396" width="182.857" height="24.033" style="fill:#ff8700;"/><g><rect x="41.796" y="275.853" width="421.094" height="24.033" style="fill:#cdd6e0;"/><rect x="41.796" y="355.265" width="420.049" height="24.033" style="fill:#cdd6e0;"/></g><rect x="41.796" y="434.678" width="271.673" height="24.033" style="fill:#ff8700;"/></g></svg>