<?xml version="1.0" encoding="UTF-8" standalone="no"?><!DOCTYPE svg PUBLIC "-//W3C//DTD SVG 1.1//EN" "http://www.w3.org/Graphics/SVG/1.1/DTD/svg11.dtd"><svg width="100%" height="100%" viewBox="0 0 512 512" version="1.1" xmlns="http://www.w3.org/2000/svg" xmlns:xlink="http://www.w3.org/1999/xlink" xml:space="preserve" style="fill-rule:evenodd;clip-rule:evenodd;stroke-linejoin:round;stroke-miterlimit:1.41421;"><g id="Icon"><path d="M467.862,512c-24.373,0 -44.138,-19.765 -44.138,-44.138l0,-185.379l70.541,0c9.799,0 17.735,7.936 17.735,17.735l0,167.645c0,24.372 -19.765,44.137 -44.138,44.137" style="fill:#cdcfcf;fill-rule:nonzero;"/><path d="M423.724,467.862l0,-44.138l0,-211.862l0,-194.127c0,-9.799 -7.936,-17.735 -17.734,-17.735l-388.255,0c-9.799,0 -17.735,7.936 -17.735,17.735l0,476.531c0,9.798 7.936,17.734 17.735,17.734l450.127,0c-24.373,0 -44.138,-19.765 -44.138,-44.138" style="fill:#ecf1f1;fill-rule:nonzero;"/><g><path d="M44.138,203.034l211.862,0l0,-158.896l-211.862,0l0,158.896Z" style="fill:#ff8700;fill-rule:nonzero;"/><path d="M370.759,61.793l-44.138,0c-4.873,0 -8.828,-3.955 -8.828,-8.828c0,-4.873 3.955,-8.828 8.828,-8.828l44.138,0c4.873,0 8.828,3.955 8.828,8.828c0,4.873 -3.956,8.828 -8.828,8.828" style="fill:#cdcfcf;fill-rule:nonzero;"/><path d="M379.586,105.931l-79.448,0c-4.873,0 -8.828,-3.955 -8.828,-8.828c0,-4.873 3.955,-8.828 8.828,-8.828l79.448,0c4.873,0 8.828,3.955 8.828,8.828c0,4.873 -3.955,8.828 -8.828,8.828" style="fill:#cdcfcf;fill-rule:nonzero;"/><path d="M353.103,150.069l-35.31,0c-4.873,0 -8.828,-3.955 -8.828,-8.828c0,-4.873 3.955,-8.828 8.828,-8.828l35.31,0c4.873,0 8.828,3.955 8.828,8.828c0,4.873 -3.955,8.828 -8.828,8.828" style="fill:#cdcfcf;fill-rule:nonzero;"/><path d="M44.138,282.483l335.448,0l0,-35.311l-335.448,0l0,35.311Z" style="fill:#cdcfcf;fill-rule:nonzero;"/><path d="M220.69,335.448l-176.552,0c-4.873,0 -8.828,-3.955 -8.828,-8.828c0,-4.873 3.955,-8.828 8.828,-8.828l176.552,0c4.873,0 8.828,3.955 8.828,8.828c-0.001,4.873 -3.956,8.828 -8.828,8.828" style="fill:#cdcfcf;fill-rule:nonzero;"/><path d="M379.586,335.448l-105.931,0c-4.873,0 -8.828,-3.955 -8.828,-8.828c0,-4.873 3.955,-8.828 8.828,-8.828l105.931,0c4.873,0 8.828,3.955 8.828,8.828c0,4.873 -3.955,8.828 -8.828,8.828" style="fill:#cdcfcf;fill-rule:nonzero;"/><path d="M326.621,379.586l-70.621,0c-4.873,0 -8.828,-3.955 -8.828,-8.828c0,-4.873 3.955,-8.828 8.828,-8.828l70.621,0c4.873,0 8.828,3.955 8.828,8.828c-0.001,4.873 -3.956,8.828 -8.828,8.828" style="fill:#cdcfcf;fill-rule:nonzero;"/><path d="M370.759,423.724l-97.103,0c-4.873,0 -8.828,-3.955 -8.828,-8.828c0,-4.873 3.955,-8.828 8.828,-8.828l97.103,0c4.873,0 8.828,3.955 8.828,8.828c0,4.873 -3.956,8.828 -8.828,8.828" style="fill:#cdcfcf;fill-rule:nonzero;"/><path d="M379.586,467.862l-123.586,0c-4.873,0 -8.828,-3.955 -8.828,-8.828c0,-4.873 3.955,-8.828 8.828,-8.828l123.586,0c4.873,0 8.828,3.955 8.828,8.828c0,4.873 -3.955,8.828 -8.828,8.828" style="fill:#cdcfcf;fill-rule:nonzero;"/><path d="M176.552,467.862l-123.586,0c-4.873,0 -8.828,-3.955 -8.828,-8.828c0,-4.873 3.955,-8.828 8.828,-8.828l123.586,0c4.873,0 8.828,3.955 8.828,8.828c0,4.873 -3.955,8.828 -8.828,8.828" style="fill:#cdcfcf;fill-rule:nonzero;"/><path d="M176.552,423.724l-97.104,0c-4.873,0 -8.828,-3.955 -8.828,-8.828c0,-4.873 3.955,-8.828 8.828,-8.828l97.103,0c4.873,0 8.828,3.955 8.828,8.828c0,4.873 -3.954,8.828 -8.827,8.828" style="fill:#cdcfcf;fill-rule:nonzero;"/><path d="M194.207,379.586l-123.586,0c-4.873,0 -8.828,-3.955 -8.828,-8.828c0,-4.873 3.955,-8.828 8.828,-8.828l123.586,0c4.873,0 8.828,3.955 8.828,8.828c-0.001,4.873 -3.955,8.828 -8.828,8.828" style="fill:#cdcfcf;fill-rule:nonzero;"/><path d="M361.931,203.034l-61.793,0c-4.873,0 -8.828,-3.955 -8.828,-8.828c0,-4.873 3.955,-8.828 8.828,-8.828l61.793,0c4.873,0 8.828,3.955 8.828,8.828c0,4.873 -3.955,8.828 -8.828,8.828" style="fill:#cdcfcf;fill-rule:nonzero;"/></g></g></svg>